<?xml version="1.0" encoding="UTF-8" ?>
<!DOCTYPE svg PUBLIC "-//W3C//DTD SVG 1.1//EN" "http://www.w3.org/Graphics/SVG/1.1/DTD/svg11.dtd">
<svg width="60pt" height="40pt" viewBox="0 0 60 40" version="1.1" xmlns="http://www.w3.org/2000/svg">
<g id="#37428bff">
<path fill="#37428b" stroke="#37428b" stroke-width="0.09375" opacity="1.00" d=" M 6.10 6.10 C 12.36 6.09 18.62 6.11 24.88 6.10 C 24.89 6.65 24.90 7.76 24.90 8.31 C 24.90 8.82 24.91 9.84 24.91 10.35 C 24.91 10.92 24.91 12.07 24.91 12.64 C 24.91 13.15 24.91 14.16 24.91 14.67 C 24.91 15.19 24.91 16.23 24.91 16.75 C 24.91 17.29 24.91 18.36 24.91 18.90 C 24.90 19.47 24.90 20.61 24.90 21.18 C 18.64 21.22 12.38 21.23 6.12 21.18 C 6.06 16.15 6.08 11.13 6.10 6.10 Z" />
</g>
<g id="#cf0628f6">
<path fill="#cf0628" stroke="#cf0628" stroke-width="0.09375" opacity="0.96" d=" M 24.88 6.10 C 34.60 6.01 44.31 6.00 54.03 6.11 C 54.00 6.66 53.95 7.75 53.93 8.29 C 44.25 8.33 34.58 8.30 24.90 8.31 C 24.90 7.76 24.89 6.65 24.88 6.10 Z" />
</g>
<g id="#fffefeff">
<path fill="#fffefe" stroke="#fffefe" stroke-width="0.09375" opacity="1.00" d=" M 24.90 8.31 C 34.58 8.30 44.25 8.33 53.93 8.29 C 53.93 8.83 53.92 9.89 53.92 10.42 C 44.25 10.48 34.58 10.62 24.91 10.35 C 24.91 9.84 24.90 8.82 24.90 8.31 Z" />
<path fill="#fffefe" stroke="#fffefe" stroke-width="0.09375" opacity="1.00" d=" M 24.91 12.64 C 34.59 12.39 44.27 12.50 53.94 12.58 C 53.93 13.11 53.90 14.18 53.89 14.71 C 44.23 14.62 34.57 14.70 24.91 14.67 C 24.91 14.16 24.91 13.15 24.91 12.64 Z" />
<path fill="#fffefe" stroke="#fffefe" stroke-width="0.09375" opacity="1.00" d=" M 24.91 16.75 C 34.57 16.67 44.24 16.69 53.91 16.73 C 53.91 17.27 53.90 18.34 53.90 18.87 C 44.23 18.86 34.57 18.82 24.91 18.90 C 24.91 18.36 24.91 17.29 24.91 16.75 Z" />
<path fill="#fffefe" stroke="#fffefe" stroke-width="0.09375" opacity="1.00" d=" M 6.12 21.18 C 12.38 21.23 18.64 21.22 24.90 21.18 C 34.56 21.14 44.23 21.19 53.89 21.15 C 53.90 21.68 53.91 22.73 53.91 23.26 C 37.97 23.31 22.03 23.31 6.09 23.25 C 6.10 22.73 6.11 21.70 6.12 21.18 Z" />
<path fill="#fffefe" stroke="#fffefe" stroke-width="0.09375" opacity="1.00" d=" M 6.11 25.35 C 22.04 25.46 37.97 25.46 53.90 25.35 C 53.90 25.91 53.89 27.01 53.88 27.57 C 37.96 27.42 22.04 27.41 6.13 27.58 C 6.12 27.02 6.11 25.91 6.11 25.35 Z" />
<path fill="#fffefe" stroke="#fffefe" stroke-width="0.09375" opacity="1.00" d=" M 6.09 29.64 C 22.03 29.55 37.98 29.56 53.93 29.64 C 53.93 30.17 53.92 31.22 53.92 31.74 C 37.98 31.73 22.04 31.72 6.09 31.75 C 6.09 31.22 6.09 30.17 6.09 29.64 Z" />
</g>
<g id="#da1e17ff">
<path fill="#da1e17" stroke="#da1e17" stroke-width="0.09375" opacity="1.00" d=" M 24.91 10.35 C 34.58 10.62 44.25 10.48 53.92 10.42 C 53.93 10.96 53.94 12.04 53.94 12.58 C 44.27 12.50 34.59 12.39 24.91 12.64 C 24.91 12.07 24.91 10.92 24.91 10.35 Z" />
<path fill="#da1e17" stroke="#da1e17" stroke-width="0.09375" opacity="1.00" d=" M 24.91 14.67 C 34.57 14.70 44.23 14.62 53.89 14.71 C 53.90 15.22 53.90 16.23 53.91 16.73 C 44.24 16.69 34.57 16.67 24.91 16.75 C 24.91 16.23 24.91 15.19 24.91 14.67 Z" />
<path fill="#da1e17" stroke="#da1e17" stroke-width="0.09375" opacity="1.00" d=" M 6.09 23.25 C 22.03 23.31 37.97 23.31 53.91 23.26 C 53.91 23.78 53.90 24.83 53.90 25.35 C 37.97 25.46 22.04 25.46 6.11 25.35 C 6.10 24.83 6.09 23.78 6.09 23.25 Z" />
<path fill="#da1e17" stroke="#da1e17" stroke-width="0.09375" opacity="1.00" d=" M 6.13 27.58 C 22.04 27.41 37.96 27.42 53.88 27.57 C 53.89 28.09 53.92 29.12 53.93 29.64 C 37.98 29.56 22.03 29.55 6.09 29.64 C 6.10 29.13 6.12 28.09 6.13 27.58 Z" />
</g>
<g id="#de0d33fe">
<path fill="#de0d33" stroke="#de0d33" stroke-width="0.09375" opacity="1.00" d=" M 24.91 18.90 C 34.57 18.82 44.23 18.86 53.90 18.87 C 53.90 19.44 53.89 20.58 53.89 21.15 C 44.23 21.19 34.56 21.14 24.90 21.18 C 24.90 20.61 24.90 19.47 24.91 18.90 Z" />
</g>
<g id="#d0062af5">
<path fill="#d0062a" stroke="#d0062a" stroke-width="0.09375" opacity="0.96" d=" M 6.09 31.75 C 22.04 31.72 37.98 31.73 53.92 31.74 C 53.95 32.28 54.00 33.35 54.03 33.89 C 38.02 33.99 22.01 34.00 6.00 33.89 C 6.02 33.35 6.07 32.28 6.09 31.75 Z" />
</g>
</svg>
