<?xml version="1.0" encoding="UTF-8" ?>
<!DOCTYPE svg PUBLIC "-//W3C//DTD SVG 1.1//EN" "http://www.w3.org/Graphics/SVG/1.1/DTD/svg11.dtd">
<svg width="60pt" height="40pt" viewBox="0 0 60 40" version="1.1" xmlns="http://www.w3.org/2000/svg">
<g id="#da251dff">
<path fill="#da251d" stroke="#da251d" stroke-width="0.09375" opacity="1.00" d=" M 6.06 6.10 C 22.02 6.08 37.98 6.08 53.94 6.10 C 53.92 15.37 53.92 24.63 53.94 33.90 C 37.98 33.92 22.02 33.92 6.06 33.90 C 6.08 24.63 6.08 15.37 6.06 6.10 M 27.84 17.41 C 25.57 17.38 23.30 17.44 21.03 17.56 C 22.85 18.72 24.70 19.85 26.55 20.97 C 25.73 22.88 25.09 24.87 24.47 26.86 C 26.30 25.58 28.15 24.35 30.01 23.12 C 31.86 24.35 33.72 25.58 35.55 26.85 C 34.93 24.86 34.28 22.88 33.48 20.96 C 35.34 19.86 37.17 18.71 39.00 17.56 C 36.73 17.45 34.46 17.38 32.19 17.41 C 31.44 15.47 30.76 13.51 30.01 11.57 C 29.26 13.51 28.58 15.47 27.84 17.41 Z" />
</g>
<g id="#ffff00ff">
<path fill="#ffff00" stroke="#ffff00" stroke-width="0.09375" opacity="1.00" d=" M 27.84 17.41 C 28.58 15.47 29.26 13.51 30.01 11.57 C 30.76 13.51 31.44 15.47 32.19 17.41 C 34.46 17.38 36.73 17.45 39.00 17.56 C 37.17 18.71 35.34 19.86 33.48 20.96 C 34.28 22.88 34.93 24.86 35.55 26.85 C 33.72 25.58 31.86 24.35 30.01 23.12 C 28.15 24.35 26.30 25.58 24.47 26.86 C 25.09 24.87 25.73 22.88 26.55 20.97 C 24.70 19.85 22.85 18.72 21.03 17.56 C 23.30 17.44 25.57 17.38 27.84 17.41 Z" />
</g>
</svg>
